<?xml version="1.0" encoding="utf-8"?>
<!-- Generator: Adobe Illustrator 23.0.1, SVG Export Plug-In . SVG Version: 6.00 Build 0)  -->
<svg version="1.0" id="Logo" xmlns="http://www.w3.org/2000/svg" xmlns:xlink="http://www.w3.org/1999/xlink" x="0px" y="0px"
	 viewBox="0 0 512 512" style="enable-background:new 0 0 512 512;" xml:space="preserve">
<style type="text/css">
	.st0{fill-rule:evenodd;clip-rule:evenodd;fill:#FFFFFF;}
</style>
<g>
	<g id="WA_Logo">
		<g>
			<path class="st0" d="M435.79,74.4C387.88,26.45,324.19,0.02,256.32,0C116.48,0,2.66,113.81,2.6,253.69
				c-0.02,44.72,11.67,88.37,33.87,126.84L0.47,512l134.5-35.28c37.06,20.22,78.78,30.86,121.24,30.88h0.11c0.01,0-0.01,0,0,0
				c139.83,0,253.66-113.82,253.71-253.71C510.05,186.1,483.69,122.36,435.79,74.4z M256.32,464.75h-0.09
				c-37.83-0.01-74.95-10.18-107.33-29.39l-7.7-4.57l-79.82,20.94l21.3-77.82l-5.01-7.98c-21.11-33.58-32.26-72.38-32.24-112.22
				C45.48,137.43,140.08,42.83,256.4,42.83c56.33,0.02,109.27,21.98,149.09,61.85c39.82,39.85,61.73,92.85,61.7,149.18
				C467.14,370.15,372.54,464.75,256.32,464.75z M371.98,306.82c-6.34-3.18-37.51-18.5-43.32-20.62
				c-5.82-2.12-10.04-3.18-14.26,3.18c-4.22,6.35-16.37,20.63-20.07,24.85c-3.7,4.23-7.4,4.76-13.73,1.58
				c-6.34-3.18-26.76-9.87-50.98-31.46c-18.84-16.81-31.57-37.57-35.27-43.92c-3.7-6.35-0.39-9.78,2.77-12.93
				c2.85-2.85,6.34-7.41,9.51-11.11c3.18-3.7,4.22-6.35,6.34-10.57c2.12-4.23,1.06-7.93-0.52-11.11
				c-1.58-3.18-14.26-34.38-19.55-47.07c-5.15-12.36-10.38-10.68-14.26-10.89c-3.7-0.18-7.92-0.22-12.15-0.22
				c-4.22,0-11.09,1.58-16.91,7.93c-5.82,6.35-22.19,21.69-22.19,52.88c0,31.2,22.71,61.35,25.89,65.58
				c3.18,4.23,44.71,68.26,108.3,95.73c15.12,6.53,26.93,10.44,36.14,13.36c15.18,4.83,29,4.15,39.93,2.52
				c12.18-1.82,37.51-15.34,42.79-30.15c5.28-14.81,5.28-27.51,3.7-30.15C382.56,311.58,378.32,310,371.98,306.82z"/>
		</g>
	</g>
</g>
</svg>
