<?xml version="1.0" encoding="utf-8"?>
<!-- Generator: Adobe Illustrator 23.0.1, SVG Export Plug-In . SVG Version: 6.00 Build 0)  -->
<svg version="1.0" id="Layer_1" xmlns="http://www.w3.org/2000/svg" xmlns:xlink="http://www.w3.org/1999/xlink" x="0px" y="0px"
	 viewBox="0 0 113.39 42.52" style="enable-background:new 0 0 113.39 42.52;" xml:space="preserve">
<style type="text/css">
	.st0{fill:#742638;}
</style>
<g>
	<g>
		<g>
			<path class="st0" d="M48.15,31.12c-1.04-0.93-1.3-2.16-1.3-3.18c0-0.72,0.25-1.98,1.2-2.93c0.64-0.64,1.62-1.15,3.28-1.15
				c0.43,0,1.03,0.03,1.56,0.13c0.41,0.08,0.75,0.14,1.1,0.16c0.12,0.01,0.14,0.05,0.14,0.12c0,0.09-0.03,0.21-0.05,0.6
				c-0.02,0.35-0.02,0.95-0.03,1.11S54,26.2,53.94,26.2c-0.08,0-0.09-0.08-0.09-0.23c0-0.42-0.17-0.86-0.45-1.1
				c-0.38-0.32-1.2-0.61-2.15-0.61c-1.43,0-2.09,0.42-2.47,0.78c-0.78,0.75-0.97,1.71-0.97,2.8c0,2.05,1.58,3.93,3.88,3.93
				c0.81,0,1.44-0.1,1.87-0.54c0.23-0.24,0.37-0.71,0.4-0.9c0.02-0.12,0.04-0.16,0.11-0.16c0.05,0,0.08,0.08,0.08,0.16
				c0,0.08-0.13,1.01-0.24,1.38c-0.06,0.2-0.09,0.23-0.28,0.31c-0.43,0.17-1.25,0.25-1.93,0.25C50.08,32.28,49,31.89,48.15,31.12z"
				/>
			<path class="st0" d="M59.03,25.1c2.13,0,3.74,1.3,3.74,3.43c0,2.04-1.51,3.73-3.79,3.73c-2.59,0-3.7-1.94-3.7-3.59
				C55.28,27.19,56.42,25.1,59.03,25.1z M59.24,31.88c0.85,0,2.56-0.45,2.56-3.09c0-2.19-1.33-3.34-2.83-3.34
				c-1.58,0-2.72,0.99-2.72,2.98C56.25,30.54,57.53,31.88,59.24,31.88z"/>
			<path class="st0" d="M64.74,27.87c0-1.42,0-1.68-0.02-1.97c-0.02-0.31-0.08-0.46-0.39-0.5c-0.08-0.01-0.24-0.02-0.32-0.02
				c-0.03,0-0.08-0.04-0.08-0.08c0-0.05,0.04-0.08,0.15-0.08c0.43,0,1.06,0.02,1.12,0.02c0.1,0,0.89-0.02,1.18-0.02
				c0.6,0,1.27,0.05,1.76,0.4c0.24,0.17,0.66,0.61,0.66,1.25c0,0.68-0.28,1.33-1.16,2.08c0.77,0.97,1.43,1.79,1.98,2.36
				c0.5,0.52,0.82,0.6,1.05,0.63c0.18,0.03,0.28,0.03,0.33,0.03c0.05,0,0.09,0.04,0.09,0.08c0,0.05-0.05,0.08-0.22,0.08h-0.59
				c-0.54,0-0.77-0.05-1.01-0.18c-0.41-0.21-0.75-0.66-1.29-1.34c-0.4-0.49-0.82-1.08-1.02-1.33c-0.04-0.04-0.06-0.05-0.13-0.05
				l-1.2-0.02c-0.04,0-0.06,0.02-0.06,0.08v0.21c0,0.88,0,1.59,0.04,1.97c0.03,0.27,0.09,0.44,0.38,0.48
				c0.13,0.02,0.33,0.04,0.42,0.04c0.06,0,0.07,0.04,0.07,0.08c0,0.04-0.04,0.08-0.15,0.08c-0.52,0-1.12-0.03-1.16-0.03
				c-0.01,0-0.64,0.03-0.93,0.03c-0.1,0-0.15-0.02-0.15-0.08c0-0.03,0.02-0.08,0.07-0.08c0.09,0,0.21-0.02,0.29-0.04
				c0.18-0.04,0.2-0.21,0.25-0.48c0.05-0.38,0.05-1.1,0.05-1.98V27.87z M65.55,28.64c0,0.05,0.02,0.09,0.06,0.12
				c0.14,0.08,0.62,0.14,1.04,0.14c0.23,0,0.48-0.01,0.71-0.16c0.32-0.21,0.57-0.7,0.57-1.4c0-1.14-0.62-1.79-1.63-1.79
				c-0.28,0-0.58,0.03-0.68,0.05c-0.04,0.02-0.07,0.05-0.07,0.11V28.64z"/>
			<path class="st0" d="M73.52,29.48c0,0.88,0,1.6,0.04,1.98c0.03,0.27,0.08,0.44,0.37,0.48c0.13,0.02,0.34,0.04,0.43,0.04
				c0.06,0,0.08,0.04,0.08,0.08c0,0.04-0.04,0.08-0.15,0.08c-0.52,0-1.12-0.03-1.17-0.03c-0.04,0-0.7,0.03-0.98,0.03
				c-0.11,0-0.15-0.02-0.15-0.08c0-0.03,0.02-0.06,0.07-0.06c0.09,0,0.19-0.02,0.28-0.04c0.19-0.04,0.25-0.23,0.28-0.49
				c0.04-0.38,0.04-1.1,0.04-1.98v-3.83l-1.36,0.02c-0.59,0.01-0.82,0.08-0.96,0.29c-0.11,0.16-0.12,0.23-0.15,0.29
				c-0.02,0.08-0.05,0.09-0.1,0.09c-0.02,0-0.06-0.02-0.06-0.08c0-0.1,0.18-0.91,0.2-0.99c0.01-0.05,0.06-0.17,0.1-0.17
				c0.06,0,0.16,0.08,0.42,0.11c0.27,0.03,0.63,0.04,0.74,0.04h3.57c0.31,0,0.53-0.02,0.68-0.04c0.14-0.02,0.23-0.04,0.27-0.04
				s0.04,0.05,0.04,0.11c0,0.28-0.03,0.93-0.03,1.04c0,0.08-0.04,0.12-0.09,0.12s-0.06-0.03-0.07-0.16l-0.01-0.1
				c-0.03-0.28-0.24-0.48-1.14-0.5l-1.18-0.02V29.48z"/>
			<path class="st0" d="M78.01,27.87c0-1.42,0-1.68-0.02-1.97c-0.02-0.31-0.07-0.46-0.39-0.5c-0.07-0.01-0.24-0.02-0.32-0.02
				c-0.03,0-0.07-0.04-0.07-0.08c0-0.05,0.04-0.08,0.15-0.08c0.43,0,1.04,0.02,1.1,0.02c0.06,0,2.04,0.01,2.26,0
				c0.18-0.01,0.35-0.04,0.43-0.05c0.04-0.01,0.09-0.04,0.13-0.04c0.03,0,0.04,0.04,0.04,0.09c0,0.06-0.05,0.17-0.08,0.43
				c-0.01,0.09-0.03,0.49-0.05,0.6c-0.01,0.04-0.04,0.1-0.09,0.1c-0.05,0-0.08-0.04-0.08-0.12c0-0.06-0.01-0.21-0.05-0.32
				c-0.06-0.15-0.16-0.21-0.68-0.28c-0.16-0.02-1.26-0.03-1.36-0.03c-0.04,0-0.05,0.03-0.05,0.1v2.48c0,0.06,0,0.1,0.05,0.1
				c0.12,0,1.36,0,1.58-0.02c0.23-0.02,0.37-0.03,0.46-0.13c0.06-0.06,0.11-0.12,0.14-0.12c0.03,0,0.05,0.02,0.05,0.08
				s-0.05,0.2-0.08,0.5c-0.02,0.18-0.04,0.53-0.04,0.59c0,0.08-0.02,0.17-0.09,0.17c-0.04,0-0.06-0.03-0.06-0.09
				c0-0.09,0-0.18-0.04-0.3c-0.03-0.13-0.12-0.24-0.48-0.28c-0.26-0.03-1.27-0.04-1.43-0.04c-0.05,0-0.06,0.03-0.06,0.06v0.76
				c0,0.31-0.01,1.38,0,1.56c0.02,0.61,0.19,0.73,1.13,0.73c0.25,0,0.7,0,0.95-0.1c0.25-0.11,0.38-0.27,0.43-0.63
				c0.02-0.11,0.04-0.14,0.1-0.14c0.05,0,0.06,0.08,0.06,0.14s-0.07,0.69-0.13,0.88c-0.06,0.24-0.16,0.24-0.53,0.24
				c-0.71,0-1.26-0.02-1.64-0.03c-0.4-0.02-0.64-0.02-0.78-0.02c-0.02,0-0.21,0-0.41,0.01c-0.18,0.01-0.4,0.02-0.55,0.02
				c-0.1,0-0.15-0.02-0.15-0.08c0-0.03,0.02-0.08,0.08-0.08c0.09,0,0.2-0.03,0.29-0.04c0.18-0.03,0.21-0.21,0.25-0.48
				c0.05-0.38,0.05-1.1,0.05-1.98V27.87z"/>
			<path class="st0" d="M84.78,29.5c0,1.34,0.02,1.89,0.19,2.05c0.15,0.15,0.52,0.21,1.26,0.21c0.49,0,0.91-0.01,1.14-0.28
				c0.12-0.14,0.19-0.33,0.22-0.52c0.01-0.06,0.04-0.12,0.1-0.12c0.04,0,0.06,0.04,0.06,0.14s-0.06,0.64-0.14,0.91
				c-0.06,0.21-0.1,0.25-0.6,0.25c-0.68,0-1.2-0.01-1.64-0.03c-0.43-0.01-0.75-0.02-1.03-0.02c-0.04,0-0.21,0-0.39,0.01
				c-0.19,0.01-0.4,0.02-0.55,0.02c-0.1,0-0.15-0.02-0.15-0.08c0-0.03,0.02-0.08,0.08-0.08c0.09,0,0.2-0.02,0.29-0.04
				c0.18-0.04,0.21-0.21,0.25-0.48c0.05-0.38,0.05-1.1,0.05-1.98v-1.61c0-1.42,0-1.68-0.02-1.97c-0.02-0.31-0.07-0.46-0.39-0.5
				c-0.07-0.01-0.24-0.02-0.32-0.02c-0.03,0-0.07-0.04-0.07-0.08c0-0.05,0.04-0.08,0.15-0.08c0.43,0,1.02,0.02,1.07,0.02
				c0.04,0,0.75-0.02,1.04-0.02c0.1,0,0.15,0.02,0.15,0.08c0,0.03-0.04,0.06-0.07,0.06c-0.06,0-0.21,0.01-0.31,0.02
				c-0.28,0.05-0.33,0.19-0.35,0.52c-0.01,0.29-0.01,0.55-0.01,1.97V29.5z"/>
			<path class="st0" d="M90.53,29.5c0,1.34,0.02,1.89,0.19,2.05c0.15,0.15,0.52,0.21,1.26,0.21c0.49,0,0.91-0.01,1.14-0.28
				c0.12-0.14,0.19-0.33,0.22-0.52c0.01-0.06,0.04-0.12,0.1-0.12c0.04,0,0.06,0.04,0.06,0.14s-0.06,0.64-0.14,0.91
				c-0.06,0.21-0.1,0.25-0.6,0.25c-0.68,0-1.2-0.01-1.64-0.03c-0.43-0.01-0.75-0.02-1.03-0.02c-0.04,0-0.21,0-0.39,0.01
				c-0.19,0.01-0.4,0.02-0.55,0.02c-0.1,0-0.15-0.02-0.15-0.08c0-0.03,0.02-0.08,0.08-0.08c0.09,0,0.2-0.02,0.29-0.04
				c0.18-0.04,0.21-0.21,0.25-0.48c0.05-0.38,0.05-1.1,0.05-1.98v-1.61c0-1.42,0-1.68-0.02-1.97c-0.02-0.31-0.07-0.46-0.39-0.5
				c-0.07-0.01-0.24-0.02-0.32-0.02c-0.03,0-0.07-0.04-0.07-0.08c0-0.05,0.04-0.08,0.15-0.08c0.43,0,1.02,0.02,1.07,0.02
				c0.04,0,0.75-0.02,1.04-0.02c0.1,0,0.15,0.02,0.15,0.08c0,0.03-0.04,0.06-0.07,0.06c-0.06,0-0.21,0.01-0.31,0.02
				c-0.28,0.05-0.33,0.19-0.35,0.52c-0.01,0.29-0.01,0.55-0.01,1.97V29.5z"/>
			<path class="st0" d="M96.95,25.41c0.12-0.3,0.16-0.35,0.22-0.35c0.1,0,0.13,0.13,0.23,0.33c0.17,0.39,1.69,4.16,2.27,5.54
				c0.34,0.82,0.6,0.93,0.81,1c0.14,0.04,0.28,0.05,0.38,0.05c0.05,0,0.12,0.02,0.12,0.08s-0.11,0.08-0.21,0.08
				c-0.14,0-0.84,0-1.49-0.02c-0.18-0.01-0.33-0.01-0.33-0.06c0-0.04,0.02-0.04,0.06-0.06c0.05-0.02,0.15-0.1,0.09-0.25l-0.85-2.09
				c-0.02-0.04-0.03-0.05-0.09-0.05h-2.18c-0.04,0-0.08,0.02-0.1,0.08l-0.54,1.46c-0.09,0.23-0.14,0.45-0.14,0.61
				c0,0.18,0.16,0.25,0.32,0.25h0.09c0.07,0,0.1,0.03,0.1,0.08c0,0.05-0.05,0.08-0.14,0.08c-0.23,0-0.74-0.03-0.85-0.03
				c-0.1,0-0.57,0.03-0.96,0.03c-0.12,0-0.18-0.02-0.18-0.08c0-0.04,0.04-0.08,0.09-0.08c0.06,0,0.21-0.01,0.28-0.02
				c0.43-0.05,0.61-0.38,0.79-0.84L96.95,25.41z M98,29.21c0.04,0,0.04-0.02,0.03-0.06l-0.93-2.5c-0.05-0.14-0.11-0.14-0.16,0
				l-0.88,2.5c-0.01,0.04,0,0.06,0.03,0.06H98z"/>
		</g>
		<g>
			<path class="st0" d="M45.78,13.67c0.13-0.35,0.17-0.41,0.23-0.41s0.11,0.05,0.23,0.38c0.16,0.4,1.82,4.77,2.46,6.38
				c0.38,0.94,0.69,1.11,0.91,1.17c0.16,0.05,0.32,0.06,0.42,0.06c0.06,0,0.11,0.01,0.11,0.06c0,0.06-0.1,0.08-0.21,0.08
				c-0.16,0-0.93,0-1.66-0.02c-0.2-0.01-0.32-0.01-0.32-0.07c0-0.04,0.03-0.06,0.07-0.07c0.06-0.02,0.13-0.12,0.06-0.29l-0.98-2.6
				c-0.02-0.04-0.04-0.06-0.09-0.06h-2.27c-0.05,0-0.08,0.03-0.11,0.08L44,20.24c-0.1,0.26-0.15,0.52-0.15,0.71
				c0,0.21,0.22,0.31,0.4,0.31h0.11c0.07,0,0.11,0.02,0.11,0.06c0,0.06-0.06,0.08-0.16,0.08c-0.25,0-0.71-0.03-0.83-0.03
				s-0.7,0.03-1.2,0.03c-0.14,0-0.2-0.02-0.2-0.08c0-0.04,0.04-0.06,0.09-0.06c0.07,0,0.22-0.01,0.31-0.02
				c0.49-0.06,0.7-0.46,0.89-0.99L45.78,13.67z M46.88,17.9c0.05,0,0.05-0.03,0.04-0.07l-1-2.86c-0.05-0.16-0.11-0.16-0.16,0
				l-0.93,2.86c-0.02,0.05,0,0.07,0.03,0.07H46.88z"/>
			<path class="st0" d="M51.42,17.2c0-1.4,0-1.65-0.02-1.94c-0.02-0.31-0.07-0.45-0.38-0.5c-0.07-0.01-0.23-0.02-0.32-0.02
				c-0.03,0-0.07-0.04-0.07-0.07c0-0.05,0.04-0.07,0.15-0.07c0.42,0,1.03,0.02,1.08,0.02c0.11,0,0.7-0.02,1.25-0.02
				c0.93,0,2.63-0.08,3.73,1.03c0.47,0.47,0.91,1.22,0.91,2.28c0,1.13-0.49,2-1,2.53c-0.4,0.41-1.24,1.04-2.82,1.04
				c-0.4,0-0.9-0.03-1.3-0.05c-0.4-0.03-0.72-0.05-0.76-0.05c-0.02,0-0.19,0.01-0.38,0.01c-0.19,0.01-0.41,0.02-0.56,0.02
				c-0.1,0-0.15-0.02-0.15-0.07c0-0.03,0.02-0.07,0.07-0.07c0.08,0,0.2-0.02,0.29-0.04c0.18-0.04,0.2-0.21,0.24-0.48
				c0.05-0.37,0.05-1.08,0.05-1.95V17.2z M52.26,18.17c0,0.95,0,1.79,0.01,1.96c0.01,0.22,0.03,0.55,0.11,0.65
				c0.12,0.17,0.44,0.36,1.54,0.36c0.86,0,1.62-0.29,2.18-0.81c0.49-0.46,0.73-1.31,0.73-2.14c0-1.14-0.5-1.87-0.88-2.25
				c-0.88-0.89-1.9-1-3.01-1c-0.18,0-0.48,0.03-0.56,0.06c-0.08,0.03-0.12,0.07-0.12,0.18V18.17z"/>
			<path class="st0" d="M62.02,20.23c0.54-1.21,1.76-4.27,1.96-4.92c0.04-0.14,0.08-0.26,0.08-0.34s-0.03-0.16-0.13-0.19
				c-0.11-0.03-0.21-0.03-0.32-0.03c-0.05,0-0.11-0.03-0.11-0.07c0-0.05,0.06-0.07,0.21-0.07c0.37,0,0.79,0.02,0.91,0.02
				c0.05,0,0.45-0.02,0.73-0.02c0.1,0,0.15,0.02,0.15,0.06s-0.03,0.08-0.11,0.08c-0.06,0-0.28,0-0.45,0.11
				c-0.13,0.08-0.27,0.21-0.52,0.82c-0.11,0.25-0.56,1.33-1.04,2.43c-0.57,1.31-0.98,2.28-1.2,2.73c-0.25,0.54-0.31,0.68-0.4,0.68
				c-0.11,0-0.17-0.12-0.35-0.55l-2.28-5.51c-0.21-0.51-0.34-0.6-0.64-0.68c-0.15-0.03-0.31-0.03-0.36-0.03s-0.07-0.05-0.07-0.08
				c0-0.05,0.09-0.06,0.24-0.06c0.44,0,0.97,0.02,1.09,0.02c0.1,0,0.51-0.02,0.87-0.02c0.17,0,0.25,0.02,0.25,0.06
				s-0.03,0.08-0.09,0.08c-0.11,0-0.25,0.01-0.34,0.04c-0.09,0.04-0.11,0.09-0.11,0.16c0,0.12,0.12,0.39,0.25,0.75L62.02,20.23z"/>
			<path class="st0" d="M69.47,14.47c2.09,0,3.68,1.28,3.68,3.37c0,2.01-1.49,3.67-3.73,3.67c-2.55,0-3.64-1.91-3.64-3.53
				C65.78,16.53,66.9,14.47,69.47,14.47z M69.68,21.15c0.84,0,2.52-0.44,2.52-3.05c0-2.16-1.31-3.29-2.78-3.29
				c-1.55,0-2.68,0.97-2.68,2.93C66.74,19.83,68,21.15,69.68,21.15z"/>
			<path class="st0" d="M75.46,20.55c-0.91-0.78-1.13-1.81-1.13-2.66c0-0.6,0.22-1.65,1.05-2.45c0.56-0.54,1.41-0.96,2.83-0.96
				c0.37,0,0.9,0.03,1.35,0.11c0.35,0.06,0.64,0.13,0.95,0.14c0.1,0,0.12,0.04,0.12,0.1c0,0.07-0.02,0.18-0.04,0.51
				c-0.01,0.3-0.01,0.79-0.02,0.92c-0.01,0.14-0.05,0.19-0.11,0.19c-0.06,0-0.07-0.06-0.07-0.19c0-0.35-0.15-0.71-0.39-0.9
				c-0.33-0.28-1-0.5-1.83-0.5c-1.19,0-1.77,0.32-2.09,0.62c-0.69,0.63-0.83,1.44-0.83,2.35c0,1.72,1.36,3.26,3.35,3.26
				c0.7,0,1.16-0.05,1.53-0.42c0.2-0.2,0.33-0.58,0.36-0.75c0.02-0.1,0.03-0.13,0.1-0.13c0.04,0,0.08,0.06,0.08,0.13
				s-0.13,0.85-0.22,1.15c-0.05,0.17-0.07,0.2-0.23,0.26c-0.38,0.15-1.08,0.2-1.68,0.2C77.13,21.52,76.19,21.19,75.46,20.55z"/>
			<path class="st0" d="M84.29,14.78c0.12-0.3,0.16-0.35,0.22-0.35c0.1,0,0.13,0.13,0.22,0.33c0.17,0.38,1.66,4.09,2.23,5.46
				c0.34,0.8,0.59,0.92,0.79,0.98c0.14,0.04,0.28,0.05,0.37,0.05c0.05,0,0.12,0.02,0.12,0.07s-0.11,0.07-0.21,0.07
				c-0.14,0-0.82,0-1.47-0.02c-0.18-0.01-0.33-0.01-0.33-0.06c0-0.04,0.02-0.04,0.06-0.06c0.05-0.02,0.15-0.1,0.08-0.24l-0.83-2.06
				c-0.02-0.04-0.03-0.05-0.09-0.05h-2.15c-0.04,0-0.07,0.02-0.09,0.07L82.7,20.4c-0.08,0.22-0.14,0.44-0.14,0.6
				c0,0.18,0.16,0.24,0.32,0.24h0.08c0.07,0,0.1,0.03,0.1,0.07c0,0.05-0.05,0.07-0.14,0.07c-0.22,0-0.73-0.03-0.84-0.03
				c-0.1,0-0.56,0.03-0.94,0.03c-0.12,0-0.18-0.02-0.18-0.07c0-0.04,0.04-0.07,0.08-0.07c0.06,0,0.2-0.01,0.28-0.02
				c0.42-0.05,0.6-0.37,0.78-0.82L84.29,14.78z M85.33,18.52c0.04,0,0.04-0.02,0.03-0.06l-0.92-2.46c-0.05-0.14-0.11-0.14-0.16,0
				l-0.87,2.46c-0.01,0.04,0,0.06,0.03,0.06H85.33z"/>
			<path class="st0" d="M89.55,20.55c-0.91-0.78-1.13-1.81-1.13-2.66c0-0.6,0.22-1.65,1.05-2.45c0.56-0.54,1.41-0.96,2.83-0.96
				c0.37,0,0.9,0.03,1.35,0.11c0.35,0.06,0.64,0.13,0.95,0.14c0.1,0,0.12,0.04,0.12,0.1c0,0.07-0.02,0.18-0.04,0.51
				c-0.01,0.3-0.01,0.79-0.02,0.92c-0.01,0.14-0.05,0.19-0.11,0.19c-0.06,0-0.07-0.06-0.07-0.19c0-0.35-0.15-0.71-0.39-0.9
				c-0.33-0.28-1-0.5-1.83-0.5c-1.19,0-1.77,0.32-2.09,0.62c-0.69,0.63-0.83,1.44-0.83,2.35c0,1.72,1.36,3.26,3.35,3.26
				c0.7,0,1.16-0.05,1.53-0.42c0.2-0.2,0.33-0.58,0.36-0.75c0.02-0.1,0.03-0.13,0.1-0.13c0.04,0,0.08,0.06,0.08,0.13
				s-0.13,0.85-0.22,1.15c-0.05,0.17-0.07,0.2-0.23,0.26c-0.38,0.15-1.08,0.2-1.68,0.2C91.22,21.52,90.28,21.19,89.55,20.55z"/>
			<path class="st0" d="M97.82,18.79c0,0.87,0,1.58,0.04,1.95c0.03,0.26,0.06,0.43,0.34,0.48c0.14,0.02,0.34,0.04,0.42,0.04
				c0.05,0,0.07,0.04,0.07,0.07c0,0.04-0.04,0.07-0.15,0.07c-0.52,0-1.12-0.03-1.16-0.03c-0.05,0-0.63,0.03-0.92,0.03
				c-0.1,0-0.15-0.02-0.15-0.07c0-0.03,0.02-0.07,0.07-0.07c0.08,0,0.2-0.02,0.29-0.04c0.18-0.04,0.21-0.21,0.24-0.48
				c0.04-0.37,0.05-1.08,0.05-1.95V17.2c0-1.4,0-1.65-0.02-1.94c-0.02-0.31-0.1-0.44-0.29-0.49c-0.11-0.02-0.22-0.03-0.29-0.03
				c-0.04,0-0.07-0.04-0.07-0.07c0-0.05,0.04-0.07,0.15-0.07c0.31,0,0.89,0.02,0.94,0.02c0.04,0,0.64-0.02,0.93-0.02
				c0.11,0,0.15,0.02,0.15,0.07c0,0.03-0.04,0.07-0.07,0.07c-0.06,0-0.13,0-0.23,0.02c-0.25,0.05-0.31,0.18-0.33,0.5
				c-0.01,0.29-0.01,0.54-0.01,1.94V18.79z"/>
			<path class="st0" d="M102.5,14.78c0.12-0.3,0.16-0.35,0.22-0.35c0.09,0,0.13,0.13,0.22,0.33c0.17,0.38,1.66,4.09,2.23,5.46
				c0.34,0.8,0.59,0.92,0.79,0.98c0.14,0.04,0.27,0.05,0.37,0.05c0.05,0,0.12,0.02,0.12,0.07s-0.11,0.07-0.21,0.07
				c-0.14,0-0.82,0-1.47-0.02c-0.18-0.01-0.33-0.01-0.33-0.06c0-0.04,0.02-0.04,0.06-0.06c0.05-0.02,0.15-0.1,0.08-0.24l-0.84-2.06
				c-0.02-0.04-0.03-0.05-0.08-0.05h-2.15c-0.04,0-0.07,0.02-0.1,0.07l-0.53,1.44c-0.08,0.22-0.14,0.44-0.14,0.6
				c0,0.18,0.16,0.24,0.32,0.24h0.09c0.07,0,0.09,0.03,0.09,0.07c0,0.05-0.05,0.07-0.14,0.07c-0.22,0-0.73-0.03-0.84-0.03
				c-0.09,0-0.56,0.03-0.94,0.03c-0.12,0-0.18-0.02-0.18-0.07c0-0.04,0.04-0.07,0.09-0.07c0.06,0,0.2-0.01,0.28-0.02
				c0.42-0.05,0.6-0.37,0.78-0.82L102.5,14.78z M103.54,18.52c0.04,0,0.04-0.02,0.03-0.06l-0.92-2.46c-0.05-0.14-0.11-0.14-0.16,0
				l-0.87,2.46c-0.01,0.04,0,0.06,0.03,0.06H103.54z"/>
		</g>
	</g>
	<g>
		<path class="st0" d="M19.24,29.68h-4.33l2.73-14.81h3.38L19.24,29.68z M15.62,29.03h3.1l1.76-13.52H18L15.62,29.03z"/>
		<path class="st0" d="M37.3,29.68h-4.33l-1.56-14.74h3.39L37.3,29.68z M33.5,29.03h3.09l-2.16-13.46h-2.48L33.5,29.03z"/>
		<line class="st0" x1="18.26" y1="16.27" x2="16" y2="29.68"/>
		<polygon class="st0" points="16.3,29.68 15.7,29.68 18.02,16.27 18.5,16.27 		"/>
		<g>
			<line class="st0" x1="32.41" y1="16.27" x2="34.05" y2="29.68"/>
			<polygon class="st0" points="34.35,29.68 33.76,29.68 32.17,16.27 32.65,16.27 			"/>
		</g>
		<path class="st0" d="M28.39,29.68h-4.33l0.58-14.74h3.39L28.39,29.68z M24.68,29.03h3.1l-0.21-13.46h-2.48L24.68,29.03z"/>
		<path class="st0" d="M38.25,14.16h-2.46l-0.06-0.04l-9.56-6.96l-9.42,7h-2.51l11.95-8.87L38.25,14.16z M35.8,13.58h0.63
			L26.18,5.96l-10.15,7.63h0.72l9.43-7.09L35.8,13.58z"/>
		<polygon class="st0" points="34.67,14.37 17.62,14.37 17.73,13.79 34.57,13.79 		"/>
		<line class="st0" x1="11.88" y1="30.51" x2="39.85" y2="30.51"/>
		<polygon class="st0" points="39.94,30.92 11.79,30.92 11.97,30.1 39.76,30.1 		"/>
		<path class="st0" d="M44.65,34.03h-1.3l-0.34-1.38h-0.98l-0.32-1.37H10.07l-0.34,1.37H8.76L8.4,34.03H7.13l-0.95,3.42h39.38
			L44.65,34.03z M10.47,32.1h30.82l0.12,0.55H10.34L10.47,32.1z M9.21,33.47h33.35l0.13,0.55H9.07L9.21,33.47z M7.14,36.62
			l0.48-1.77h36.53l0.45,1.77H7.14z"/>
		<path class="st0" d="M26.22,7.75l-7.74,5.68h15.35L26.22,7.75z M26.21,8.42l5.87,4.44l-11.85,0L26.21,8.42z"/>
	</g>
</g>
</svg>
